<?xml version="1.0" encoding="UTF-8" standalone="no"?>
<svg
   xmlns:dc="http://purl.org/dc/elements/1.1/"
   xmlns:cc="http://creativecommons.org/ns#"
   xmlns:rdf="http://www.w3.org/1999/02/22-rdf-syntax-ns#"
   xmlns:svg="http://www.w3.org/2000/svg"
   xmlns="http://www.w3.org/2000/svg"
   xmlns:sodipodi="http://sodipodi.sourceforge.net/DTD/sodipodi-0.dtd"
   xmlns:inkscape="http://www.inkscape.org/namespaces/inkscape"
   aria-hidden="true"
   focusable="false"
   data-prefix="far"
   data-icon="arrows-h"
   class="svg-inline--fa fa-arrows-h fa-w-16"
   role="img"
   viewBox="0 0 512 512"
   version="1.1"
   id="svg4"
   sodipodi:docname="flip-vertical.svg"
   inkscape:version="0.92.4 (5da689c313, 2019-01-14)">
  <metadata
     id="metadata10">
    <rdf:RDF>
      <cc:Work
         rdf:about="">
        <dc:format>image/svg+xml</dc:format>
        <dc:type
           rdf:resource="http://purl.org/dc/dcmitype/StillImage" />
        <dc:title></dc:title>
      </cc:Work>
    </rdf:RDF>
  </metadata>
  <defs
     id="defs8" />
  <sodipodi:namedview
     pagecolor="#ffffff"
     bordercolor="#666666"
     borderopacity="1"
     objecttolerance="10"
     gridtolerance="10"
     guidetolerance="10"
     inkscape:pageopacity="0"
     inkscape:pageshadow="2"
     inkscape:window-width="1920"
     inkscape:window-height="1025"
     id="namedview6"
     showgrid="false"
     inkscape:zoom="0.4609375"
     inkscape:cx="-150.77966"
     inkscape:cy="256"
     inkscape:window-x="0"
     inkscape:window-y="27"
     inkscape:window-maximized="1"
     inkscape:current-layer="svg4" />
  <path
     d="m 369.1405,347.4035 c -4.753,-4.753 -12.484,-4.675 -17.14,0.173 l -70,73.203 v -329.56 l 70,73.203 c 4.656,4.849 12.387,4.927 17.14,0.173 l 19.626,-19.626 c 4.686,-4.686 4.686,-12.284 0,-16.971 L 264.4855,3.5145 c -4.686,-4.686 -12.284,-4.686 -16.971,0 l -124.28,124.485 c -4.686,4.686 -4.686,12.284 0,16.971 l 19.626,19.626 c 4.753,4.753 12.484,4.675 17.14,-0.173 l 70,-73.204 v 329.56 l -70,-73.203 c -4.656,-4.849 -12.387,-4.927 -17.14,-0.173 l -19.626,19.626 c -4.686,4.686 -4.686,12.284 0,16.971 l 124.281,124.485 c 4.686,4.686 12.284,4.686 16.971,0 l 124.28,-124.486 c 4.686,-4.686 4.686,-12.284 0,-16.971 z"
     id="path2"
     style="fill:#f2247b;fill-opacity:1"
     inkscape:connector-curvature="0" />
</svg>
