<?xml version="1.0" encoding="UTF-8" standalone="no"?>
<svg
   xmlns:dc="http://purl.org/dc/elements/1.1/"
   xmlns:cc="http://creativecommons.org/ns#"
   xmlns:rdf="http://www.w3.org/1999/02/22-rdf-syntax-ns#"
   xmlns:svg="http://www.w3.org/2000/svg"
   xmlns="http://www.w3.org/2000/svg"
   xmlns:sodipodi="http://sodipodi.sourceforge.net/DTD/sodipodi-0.dtd"
   xmlns:inkscape="http://www.inkscape.org/namespaces/inkscape"
   aria-hidden="true"
   focusable="false"
   data-prefix="fad"
   data-icon="undo"
   class="svg-inline--fa fa-undo fa-w-16"
   role="img"
   viewBox="0 0 512 512"
   version="1.1"
   id="svg8"
   sodipodi:docname="rotate-right.svg"
   inkscape:version="0.92.4 (5da689c313, 2019-01-14)">
  <metadata
     id="metadata14">
    <rdf:RDF>
      <cc:Work
         rdf:about="">
        <dc:format>image/svg+xml</dc:format>
        <dc:type
           rdf:resource="http://purl.org/dc/dcmitype/StillImage" />
        <dc:title></dc:title>
      </cc:Work>
    </rdf:RDF>
  </metadata>
  <defs
     id="defs12" />
  <sodipodi:namedview
     pagecolor="#ffffff"
     bordercolor="#666666"
     borderopacity="1"
     objecttolerance="10"
     gridtolerance="10"
     guidetolerance="10"
     inkscape:pageopacity="0"
     inkscape:pageshadow="2"
     inkscape:window-width="1920"
     inkscape:window-height="1025"
     id="namedview10"
     showgrid="false"
     inkscape:zoom="0.4609375"
     inkscape:cx="256"
     inkscape:cy="256"
     inkscape:window-x="0"
     inkscape:window-y="27"
     inkscape:window-maximized="1"
     inkscape:current-layer="g6" />
  <g
     class="fa-group"
     id="g6">
    <path
       class="fa-secondary"
       d="m 380.39007,388.69 a 12,12 0 0 0 -16.38,-0.54 176,176 0 1 1 29.61,-230.61 l 46.5,2.22 -3.52,-64.43 A 247.45,247.45 0 0 0 247.70007,8 C 111.04007,8 -0.39993275,119.53 -0.29993275,256.19 -0.19993275,393.07 110.80007,504 247.70007,504 a 247.1,247.1 0 0 0 166.21,-63.88 l 0.49,-0.46 a 12,12 0 0 0 0,-17 z"
       id="path2"
       style="opacity:1;fill:#5ac0ec;fill-opacity:1"
       inkscape:connector-curvature="0" />
    <path
       class="fa-primary"
       d="m 492.05007,0 h -48 a 12,12 0 0 0 -11.35,12.55 l 7.42,147.21 -147.54,-7.06 h -0.58 a 12,12 0 0 0 -12,12 V 212 a 12,12 0 0 0 12,12 h 200 a 12,12 0 0 0 12,-12 V 12 a 12,12 0 0 0 -11.95,-12 z"
       id="path4"
       style="fill:#f2247b;fill-opacity:1"
       inkscape:connector-curvature="0" />
  </g>
</svg>
