<?xml version="1.0" encoding="UTF-8" standalone="no"?>
<svg
   xmlns:dc="http://purl.org/dc/elements/1.1/"
   xmlns:cc="http://creativecommons.org/ns#"
   xmlns:rdf="http://www.w3.org/1999/02/22-rdf-syntax-ns#"
   xmlns:svg="http://www.w3.org/2000/svg"
   xmlns="http://www.w3.org/2000/svg"
   xmlns:sodipodi="http://sodipodi.sourceforge.net/DTD/sodipodi-0.dtd"
   xmlns:inkscape="http://www.inkscape.org/namespaces/inkscape"
   aria-hidden="true"
   focusable="false"
   data-prefix="fad"
   data-icon="undo"
   class="svg-inline--fa fa-undo fa-w-16"
   role="img"
   viewBox="0 0 512 512"
   version="1.1"
   id="svg8"
   sodipodi:docname="rotate-left.svg"
   inkscape:version="0.92.4 (5da689c313, 2019-01-14)">
  <metadata
     id="metadata14">
    <rdf:RDF>
      <cc:Work
         rdf:about="">
        <dc:format>image/svg+xml</dc:format>
        <dc:type
           rdf:resource="http://purl.org/dc/dcmitype/StillImage" />
      </cc:Work>
    </rdf:RDF>
  </metadata>
  <defs
     id="defs12" />
  <sodipodi:namedview
     pagecolor="#ffffff"
     bordercolor="#666666"
     borderopacity="1"
     objecttolerance="10"
     gridtolerance="10"
     guidetolerance="10"
     inkscape:pageopacity="0"
     inkscape:pageshadow="2"
     inkscape:window-width="1920"
     inkscape:window-height="1025"
     id="namedview10"
     showgrid="false"
     inkscape:zoom="0.4609375"
     inkscape:cx="256"
     inkscape:cy="256"
     inkscape:window-x="0"
     inkscape:window-y="27"
     inkscape:window-maximized="1"
     inkscape:current-layer="g6" />
  <g
     class="fa-group"
     id="g6">
    <path
       class="fa-secondary"
       fill="currentColor"
       d="M123.31 388.69a12 12 0 0 1 16.38-.54 176 176 0 1 0-29.61-230.61l-46.5 2.22 3.52-64.43A247.45 247.45 0 0 1 256 8c136.66 0 248.1 111.53 248 248.19C503.9 393.07 392.9 504 256 504a247.1 247.1 0 0 1-166.21-63.88l-.49-.46a12 12 0 0 1 0-17z"
       opacity="0.4"
       id="path2"
       style="fill:#5ac0ec;fill-opacity:1;opacity:1" />
    <path
       class="fa-primary"
       fill="currentColor"
       d="M11.65 0h48A12 12 0 0 1 71 12.55l-7.42 147.21 147.54-7.06h.58a12 12 0 0 1 12 12V212a12 12 0 0 1-12 12h-200a12 12 0 0 1-12-12V12A12 12 0 0 1 11.65 0z"
       id="path4"
       style="fill:#f2247b;fill-opacity:1" />
  </g>
</svg>
